<svg width="65" height="65" viewBox="0 0 65 65" fill="none" xmlns="http://www.w3.org/2000/svg">
<rect x="0.177184" y="0.177184" width="64.6456" height="64.6456" rx="4.49755" fill="white" stroke="#F2F4F8" stroke-width="0.354369"/>
<g opacity="0.7">
<path d="M11.8392 38.1046C11.8392 40.0663 12.2788 41.5725 12.8534 42.4837C13.6067 43.6772 14.7303 44.1828 15.8758 44.1828C17.3532 44.1828 18.7048 43.8237 21.3095 40.295C23.3962 37.4668 25.855 33.4968 27.5093 31.008L30.311 26.7915C32.2573 23.8632 34.5099 20.608 37.0927 18.4014C39.2013 16.6005 41.4758 15.6 43.765 15.6C47.6082 15.6 51.269 17.7815 54.0707 21.8729C57.1368 26.3538 58.6252 31.9978 58.6252 37.8223C58.6252 41.2848 57.9284 43.829 56.7428 45.839C55.5974 47.7829 53.3648 49.725 49.6091 49.725V44.1828C52.8249 44.1828 53.6274 41.2884 53.6274 37.976C53.6274 33.2556 52.5038 28.0172 50.0286 24.2742C48.2721 21.6192 45.9957 19.9969 43.4914 19.9969C40.7827 19.9969 38.603 21.998 36.1533 25.5659C34.851 27.4615 33.514 29.7717 32.0128 32.3784L30.3603 35.246C27.0406 41.0115 26.1997 42.3247 24.5398 44.4919C21.6305 48.2867 19.1462 49.725 15.8758 49.725C11.9961 49.725 9.54279 48.0795 8.02338 45.5996C6.78305 43.5789 6.17383 40.9275 6.17383 37.9063L11.8392 38.1046Z" fill="#0081FB"/>
<path d="M10.5977 22.2642C13.1974 18.3425 16.9491 15.6 21.2522 15.6C23.7443 15.6 26.2217 16.3218 28.8087 18.3889C31.6384 20.649 34.6544 24.3706 38.4171 30.5042L39.7663 32.7054C43.0233 38.0153 44.8763 40.7471 45.9608 42.0352C47.3556 43.6897 48.3323 44.1828 49.6012 44.1828C52.8198 44.1828 53.6231 41.2884 53.6231 37.976L58.6254 37.8223C58.6254 41.2848 57.928 43.829 56.7413 45.839C55.5948 47.7829 53.3602 49.725 49.6012 49.725C47.2643 49.725 45.194 49.2283 42.9046 47.1147C41.1447 45.4924 39.0872 42.6105 37.5043 40.0199L32.7959 32.323C30.4335 28.4603 28.2664 25.5802 27.0122 24.2759C25.663 22.8734 23.9287 21.1797 21.161 21.1797C18.9209 21.1797 17.0185 22.718 15.4265 25.071L10.5977 22.2642Z" fill="url(#paint0_linear_11767_33664)"/>
<path d="M21.249 21.2417C19.0028 21.2417 17.0953 22.7972 15.499 25.1764C13.2418 28.5383 11.8597 33.546 11.8597 38.3549C11.8597 40.3385 12.3009 41.8614 12.8776 42.7827L8.03007 45.9333C6.78525 43.8901 6.17383 41.2093 6.17383 38.1544C6.17383 32.5994 7.71887 26.8095 10.657 22.3383C13.2638 18.373 17.0257 15.6 21.3405 15.6L21.249 21.2417Z" fill="url(#paint1_linear_11767_33664)"/>
</g>
<defs>
<linearGradient id="paint0_linear_11767_33664" x1="17.2632" y1="36.5038" x2="53.4073" y2="38.3691" gradientUnits="userSpaceOnUse">
<stop stop-color="#0064E1"/>
<stop offset="0.4" stop-color="#0064E1"/>
<stop offset="0.83" stop-color="#0073EE"/>
<stop offset="1" stop-color="#0082FB"/>
</linearGradient>
<linearGradient id="paint1_linear_11767_33664" x1="14.4116" y1="40.7107" x2="14.4116" y2="27.523" gradientUnits="userSpaceOnUse">
<stop stop-color="#0082FB"/>
<stop offset="1" stop-color="#0064E0"/>
</linearGradient>
</defs>
</svg>
