<svg width="20" height="20" viewBox="0 0 20 20" fill="none" xmlns="http://www.w3.org/2000/svg">
<path d="M18.6863 8.18421C18.913 7.51077 18.9914 6.79737 18.9163 6.09166C18.8411 5.38595 18.6142 4.70417 18.2506 4.09188C17.7116 3.16641 16.8886 2.43369 15.9002 1.99936C14.9118 1.56502 13.8091 1.45153 12.7511 1.67522C12.15 1.0157 11.3835 0.523787 10.5287 0.248905C9.67394 -0.0259763 8.76086 -0.074154 7.8812 0.109211C7.00155 0.292577 6.18629 0.701029 5.51732 1.29355C4.84834 1.88606 4.3492 2.64178 4.07002 3.4848C3.36516 3.62738 2.69927 3.91671 2.11686 4.33346C1.53444 4.75021 1.04891 5.28479 0.69271 5.90146C0.147836 6.8254 -0.0850401 7.89632 0.0277506 8.9594C0.140541 10.0225 0.593154 11.0226 1.32015 11.8153C1.09261 12.4884 1.01342 13.2017 1.08787 13.9074C1.16232 14.6131 1.38869 15.295 1.75185 15.9075C2.29155 16.8333 3.11531 17.5662 4.10441 18.0005C5.09351 18.4349 6.19686 18.5482 7.25547 18.3243C7.73301 18.8547 8.31978 19.2786 8.97661 19.5675C9.63344 19.8565 10.3452 20.0039 11.0644 19.9999C12.1488 20.0009 13.2055 19.662 14.0819 19.032C14.9584 18.402 15.6092 17.5137 15.9405 16.4951C16.6452 16.3523 17.311 16.0628 17.8934 15.6461C18.4758 15.2293 18.9614 14.6949 19.3178 14.0784C19.8562 13.1558 20.0851 12.0889 19.9717 11.0302C19.8582 9.9716 19.4083 8.97538 18.6863 8.18421ZM11.0644 18.6909C10.1763 18.6923 9.31596 18.3853 8.63437 17.8236L8.75425 17.7566L12.791 15.4581C12.8915 15.4 12.9749 15.3171 13.0331 15.2175C13.0912 15.118 13.1221 15.0052 13.1228 14.8904V9.27629L14.8293 10.2501C14.8377 10.2543 14.845 10.2605 14.8506 10.268C14.8562 10.2755 14.8599 10.2842 14.8614 10.2934V14.9456C14.8593 15.9383 14.4585 16.8897 13.7469 17.5916C13.0353 18.2936 12.0708 18.6888 11.0644 18.6909ZM2.90291 15.2531C2.4575 14.4945 2.29758 13.6052 2.45127 12.7417L2.57123 12.8127L6.61197 15.1112C6.71195 15.1691 6.82578 15.1996 6.9417 15.1996C7.05763 15.1996 7.17145 15.1691 7.27143 15.1112L12.2075 12.3041V14.2478C12.207 14.2578 12.2043 14.2677 12.1994 14.2766C12.1946 14.2854 12.1877 14.2931 12.1795 14.299L8.09073 16.6251C7.21815 17.1209 6.18175 17.255 5.20908 16.9977C4.23642 16.7405 3.40699 16.113 2.90291 15.2531ZM1.8398 6.57963C2.28829 5.8161 2.9962 5.23374 3.8382 4.93563V9.66662C3.83668 9.78091 3.86629 9.89352 3.92393 9.99268C3.98157 10.0918 4.06513 10.1739 4.1659 10.2304L9.07798 13.0256L7.37137 13.9994C7.36214 14.0042 7.35184 14.0067 7.34138 14.0067C7.33093 14.0067 7.32063 14.0042 7.31139 13.9994L3.2307 11.6773C2.35975 11.1793 1.72435 10.3611 1.46366 9.40202C1.20296 8.44288 1.33822 7.42093 1.8398 6.55996V6.57963ZM15.8606 9.79278L10.9325 6.96996L12.6351 5.99996C12.6444 5.99512 12.6547 5.9926 12.6651 5.9926C12.6756 5.9926 12.6859 5.99512 12.6951 5.99996L16.7758 8.32604C17.3998 8.68116 17.9084 9.20404 18.2424 9.83362C18.5764 10.4632 18.7219 11.1735 18.662 11.8816C18.602 12.5897 18.3391 13.2664 17.904 13.8326C17.4688 14.3989 16.8793 14.8313 16.2043 15.0795V10.3485C16.2008 10.2344 16.1672 10.1232 16.1069 10.0257C16.0467 9.9283 15.9618 9.84807 15.8606 9.79278ZM17.5592 7.27354L17.4393 7.20254L13.4065 4.88438C13.3059 4.82615 13.1914 4.79545 13.0748 4.79545C12.9581 4.79545 12.8436 4.82615 12.743 4.88438L7.8111 7.69137V5.7478C7.81005 5.73791 7.81172 5.72794 7.81595 5.71892C7.82017 5.70989 7.82678 5.70217 7.83509 5.69655L11.9158 3.37439C12.5412 3.01899 13.2563 2.84659 13.9774 2.87735C14.6985 2.90812 15.3958 3.14078 15.9878 3.54812C16.5798 3.95546 17.042 4.52065 17.3202 5.17757C17.5985 5.8345 17.6815 6.556 17.5593 7.25771L17.5592 7.27354ZM6.87969 10.7191L5.17317 9.74928C5.16464 9.74421 5.15733 9.73735 5.15179 9.72919C5.14624 9.72102 5.14258 9.71175 5.14107 9.70203V5.0618C5.14201 4.34994 5.34837 3.65306 5.73603 3.05264C6.12369 2.45221 6.67662 1.97305 7.33018 1.67117C7.98374 1.3693 8.71092 1.25719 9.42669 1.34796C10.1425 1.43872 10.8172 1.72861 11.3722 2.18372L11.2522 2.25081L7.21551 4.54913C7.11504 4.60726 7.03162 4.69016 6.97346 4.7897C6.91529 4.88924 6.88438 5.00199 6.88375 5.11688L6.87969 10.7191ZM7.80696 8.74795L10.0052 7.49812L12.2075 8.74795V11.2474L10.0132 12.4972L7.81101 11.2474L7.80696 8.74795Z" fill="black"/>
</svg>
