<svg width="20" height="20" viewBox="0 0 20 20" fill="none" xmlns="http://www.w3.org/2000/svg">
<g clip-path="url(#clip0_11767_33737)">
<path d="M11.1763 1.52102V5.72329C10.0489 4.71976 8.21114 3.95144 6.38644 3.95144C4.7768 3.95144 3.884 4.67272 3.884 5.81737C3.884 7.03258 4.9332 7.51866 6.84914 8.15371C9.39068 8.94556 12.1668 9.99612 12.1668 13.9397C12.1668 17.6245 9.78169 20.0079 5.6696 20.0079C3.44086 20.0079 1.47931 19.2866 0.0651678 18.0714V13.5477C1.36201 14.9275 3.18671 16.0487 5.49365 16.0487C7.27924 16.0487 8.28934 15.2568 8.28934 13.9946C8.28934 12.6382 7.04464 12.1992 4.91365 11.4309C2.34604 10.5528 0 9.36108 0 5.92713C0 2.49318 2.34604 4.49925e-05 6.23004 4.49925e-05C8.06777 -0.0234752 9.97067 0.58805 11.1763 1.52102Z" fill="#7658A5"/>
<path d="M13.957 17.1082C13.957 15.5245 14.9671 14.2858 16.2835 14.2858C17.5999 14.2858 18.61 15.501 18.61 17.1082C18.61 18.7154 17.5804 19.9306 16.2835 19.9306C14.9802 19.9306 13.957 18.6762 13.957 17.1082Z" fill="#E61E26"/>
</g>
<defs>
<clipPath id="clip0_11767_33737">
<rect width="20" height="20" fill="white"/>
</clipPath>
</defs>
</svg>
