<svg width="64" height="64" viewBox="0 0 64 64" fill="none" xmlns="http://www.w3.org/2000/svg">
<g clip-path="url(#clip0_11766_33600)">
<path d="M32 64C49.6731 64 64 49.6731 64 32C64 14.3269 49.6731 0 32 0C14.3269 0 0 14.3269 0 32C0 49.6731 14.3269 64 32 64Z" fill="#003425"/>
<path d="M48.2263 38.5301C48.2263 37.2816 47.2142 36.2695 45.9657 36.2695C44.7172 36.2695 43.7051 37.2816 43.7051 38.5301V50.1847C43.7051 51.4332 44.7172 52.4453 45.9657 52.4453C47.2142 52.4453 48.2263 51.4332 48.2263 50.1847V38.5301Z" fill="white"/>
<path fill-rule="evenodd" clip-rule="evenodd" d="M45.0134 14.2242C44.0624 13.4153 42.6357 13.5305 41.8269 14.4816L29.1941 29.3353C28.8681 29.7186 28.6922 30.1792 28.6607 30.6453C28.643 30.7593 28.6338 30.8761 28.6338 30.9951V49.9841C28.6338 51.2326 29.6458 52.2447 30.8944 52.2447C32.1429 52.2447 33.155 51.2326 33.155 49.9841V31.6567L45.2709 17.4108C46.0798 16.4597 45.9645 15.033 45.0134 14.2242Z" fill="white"/>
<path d="M17.0869 13.2022C16.2954 12.2367 14.871 12.0956 13.9055 12.8871C12.9399 13.6787 12.7989 15.103 13.5904 16.0686L22.541 26.987C23.3326 27.9525 24.7569 28.0935 25.7224 27.302C26.688 26.5105 26.829 25.0861 26.0375 24.1206L17.0869 13.2022Z" fill="white"/>
<path d="M49.0803 32.5523C50.6063 32.5523 51.8433 31.3153 51.8433 29.7893C51.8433 28.2634 50.6063 27.0264 49.0803 27.0264C47.5544 27.0264 46.3174 28.2634 46.3174 29.7893C46.3174 31.3153 47.5544 32.5523 49.0803 32.5523Z" fill="#00FF25"/>
</g>
<defs>
<clipPath id="clip0_11766_33600">
<rect width="64" height="64" fill="white"/>
</clipPath>
</defs>
</svg>
