<svg width="64" height="64" viewBox="0 0 64 64" fill="none" xmlns="http://www.w3.org/2000/svg">
<rect x="0.177184" y="0.177184" width="63.6456" height="63.6456" rx="4.49755" fill="white" stroke="#F2F4F8" stroke-width="0.354369"/>
<path d="M40.0234 50.1948C40.0102 50.5151 39.8737 50.8178 39.6424 51.0398C39.4112 51.2617 39.103 51.3857 38.7825 51.3857C38.462 51.3857 38.1539 51.2617 37.9226 51.0398C37.6913 50.8178 37.5548 50.5151 37.5416 50.1948V47.2066C37.5548 46.8863 37.6913 46.5836 37.9226 46.3616C38.1539 46.1397 38.462 46.0157 38.7825 46.0157C39.103 46.0157 39.4112 46.1397 39.6424 46.3616C39.8737 46.5836 40.0102 46.8863 40.0234 47.2066V47.2528H40.9732V47.2171C40.9556 46.6478 40.7171 46.1078 40.3081 45.7113C39.8992 45.3149 39.3521 45.0932 38.7825 45.0932C38.213 45.0932 37.6658 45.3149 37.2569 45.7113C36.848 46.1078 36.6094 46.6478 36.5918 47.2171V50.1948C36.5918 50.7755 36.8225 51.3325 37.2331 51.7431C37.6438 52.1538 38.2007 52.3845 38.7815 52.3845C39.3622 52.3845 39.9191 52.1538 40.3298 51.7431C40.7404 51.3325 40.9711 50.7755 40.9711 50.1948V50.1549H40.0213L40.0234 50.1948Z" fill="#FF6B01"/>
<path d="M44.9577 46.9775C44.4743 46.9725 44.0077 47.1544 43.6552 47.4853C43.3028 47.8162 43.0919 48.2705 43.0664 48.7532V50.5877C43.1132 51.0543 43.3317 51.4868 43.6794 51.8014C44.0271 52.1159 44.4793 52.2901 44.9482 52.2901C45.4171 52.2901 45.8693 52.1159 46.217 51.8014C46.5647 51.4868 46.7832 51.0543 46.83 50.5877V48.7511C46.8052 48.2717 46.597 47.8201 46.2484 47.49C45.8999 47.1598 45.4378 46.9763 44.9577 46.9775ZM45.8886 50.4806C45.8886 50.7275 45.7905 50.9642 45.6159 51.1388C45.4414 51.3134 45.2046 51.4115 44.9577 51.4115C44.7108 51.4115 44.474 51.3134 44.2994 51.1388C44.1248 50.9642 44.0267 50.7275 44.0267 50.4806V48.8604C44.0267 48.6135 44.1248 48.3767 44.2994 48.2021C44.474 48.0275 44.7108 47.9295 44.9577 47.9295C45.2046 47.9295 45.4414 48.0275 45.6159 48.2021C45.7905 48.3767 45.8886 48.6135 45.8886 48.8604V50.4806Z" fill="#FF6B01"/>
<path d="M42.3909 45.0422H41.4453V52.2458H42.3909V45.0422Z" fill="#FF6B01"/>
<path d="M16.3031 46.9775H15.3574V52.2458H16.3031V46.9775Z" fill="#FF6B01"/>
<path d="M14.4105 45.0422H13.4648V52.2458H14.4105V45.0422Z" fill="#FF6B01"/>
<path d="M11.0786 45.0422H9.91228L8 52.2353H8.94353L9.45207 50.3231H11.5535L12.0599 52.2143H13.0034L11.0786 45.0464V45.0422ZM11.2887 49.3963H9.70004L10.4944 46.4124L11.2887 49.3963Z" fill="#FF6B01"/>
<path d="M50.3372 50.5793C50.3372 50.8268 50.2389 51.0641 50.0639 51.2391C49.889 51.4141 49.6516 51.5124 49.4042 51.5124C49.1567 51.5124 48.9194 51.4141 48.7445 51.2391C48.5695 51.0641 48.4712 50.8268 48.4712 50.5793V46.9775H47.5234V50.7349C47.5228 50.9907 47.5824 51.2431 47.6974 51.4717C47.8124 51.7002 47.9795 51.8985 48.1853 52.0505C48.3911 52.2025 48.6298 52.3039 48.8821 52.3466C49.1343 52.3893 49.3931 52.372 49.6375 52.2962C49.7279 52.27 49.8153 52.234 49.898 52.189C50.0425 52.1147 50.175 52.0191 50.291 51.9053L50.333 51.8654V52.2521H51.2871V46.9775H50.3372V50.5793Z" fill="#FF6B01"/>
<path d="M16.3031 45.0422H15.3574V45.9899H16.3031V45.0422Z" fill="#FF6B01"/>
<path d="M19.3747 46.9713C18.9485 46.9711 18.5393 47.1387 18.2357 47.4378L18.1958 47.4777V45.0422H17.248V52.2458H18.1958V51.8591L18.2357 51.8991C18.4651 52.123 18.7555 52.2743 19.0704 52.3341C19.3854 52.3939 19.711 52.3596 20.0066 52.2353C20.3021 52.1111 20.5545 51.9025 20.7321 51.6357C20.9098 51.3688 21.0048 51.0555 21.0054 50.7349V48.602C21.0048 48.1696 20.8328 47.7552 20.5271 47.4495C20.2214 47.1438 19.807 46.9718 19.3747 46.9713ZM20.0702 48.7743V50.5626C20.0702 50.8106 19.9717 51.0484 19.7963 51.2238C19.621 51.3992 19.3831 51.4977 19.1351 51.4977C18.8871 51.4977 18.6492 51.3992 18.4739 51.2238C18.2985 51.0484 18.2 50.8106 18.2 50.5626V48.7743C18.2 48.5263 18.2985 48.2884 18.4739 48.113C18.6492 47.9377 18.8871 47.8391 19.1351 47.8391C19.3831 47.8391 19.621 47.9377 19.7963 48.113C19.9717 48.2884 20.0702 48.5263 20.0702 48.7743Z" fill="#FF6B01"/>
<path d="M28.193 46.9713C27.7661 46.9706 27.3561 47.1382 27.052 47.4378L27.012 47.4777V45.0422H26.0664V52.2458H27.012V51.8591L27.052 51.8991C27.2814 52.123 27.5717 52.2743 27.8867 52.3341C28.2017 52.3939 28.5273 52.3596 28.8228 52.2353C29.1184 52.1111 29.3707 51.9025 29.5484 51.6357C29.726 51.3688 29.8211 51.0555 29.8216 50.7349V48.602C29.8211 48.17 29.6494 47.7559 29.3441 47.4502C29.0389 47.1446 28.625 46.9724 28.193 46.9713ZM28.8865 48.7743V50.5605C28.8865 50.8085 28.788 51.0463 28.6126 51.2217C28.4372 51.3971 28.1994 51.4956 27.9514 51.4956C27.7034 51.4956 27.4655 51.3971 27.2901 51.2217C27.1148 51.0463 27.0162 50.8085 27.0162 50.5605V48.7743C27.0162 48.5263 27.1148 48.2884 27.2901 48.113C27.4655 47.9377 27.7034 47.8391 27.9514 47.8391C28.1994 47.8391 28.4372 47.9377 28.6126 48.113C28.788 48.2884 28.8865 48.5263 28.8865 48.7743Z" fill="#FF6B01"/>
<path d="M54.7822 45.0422V47.4777L54.7423 47.4378C54.5133 47.2129 54.2228 47.0606 53.9075 47.0003C53.5922 46.9399 53.2661 46.974 52.9702 47.0984C52.6742 47.2228 52.4216 47.4319 52.2442 47.6994C52.0667 47.9669 51.9722 48.2809 51.9727 48.602V50.7412C51.9744 51.0612 52.0704 51.3737 52.2485 51.6396C52.4266 51.9055 52.6791 52.1131 52.9744 52.2366C53.2696 52.36 53.5947 52.3939 53.9091 52.3338C54.2235 52.2738 54.5133 52.1226 54.7423 51.8991L54.7822 51.8591V52.2458H55.73V45.0422H54.7822ZM54.7822 48.7743V50.5605C54.7822 50.6833 54.7581 50.8049 54.7111 50.9183C54.6641 51.0318 54.5952 51.1349 54.5083 51.2217C54.4215 51.3085 54.3184 51.3774 54.205 51.4244C54.0915 51.4714 53.9699 51.4956 53.8471 51.4956C53.7243 51.4956 53.6027 51.4714 53.4893 51.4244C53.3758 51.3774 53.2727 51.3085 53.1859 51.2217C53.099 51.1349 53.0302 51.0318 52.9832 50.9183C52.9362 50.8049 52.912 50.6833 52.912 50.5605V48.7743C52.912 48.6515 52.9362 48.5299 52.9832 48.4164C53.0302 48.303 53.099 48.1999 53.1859 48.113C53.2727 48.0262 53.3758 47.9573 53.4893 47.9103C53.6027 47.8633 53.7243 47.8391 53.8471 47.8391C53.9699 47.8391 54.0915 47.8633 54.205 47.9103C54.3184 47.9573 54.4215 48.0262 54.5083 48.113C54.5952 48.1999 54.6641 48.303 54.7111 48.4164C54.7581 48.5299 54.7822 48.6515 54.7822 48.7743Z" fill="#FF6B01"/>
<path d="M25.3846 48.7595C25.3819 48.6975 25.3756 48.6358 25.3657 48.5746V48.5494C25.318 48.2652 25.2075 47.9952 25.0421 47.7592C24.8821 47.531 24.6725 47.3419 24.429 47.2061C24.1855 47.0704 23.9145 46.9915 23.6362 46.9754H23.5269C23.0859 46.9745 22.6585 47.1278 22.3185 47.4086C21.9785 47.6895 21.7474 48.0804 21.6651 48.5136H22.5939C22.6357 48.3016 22.7496 48.1106 22.9162 47.9731C23.0828 47.8356 23.292 47.76 23.508 47.7592C23.748 47.7623 23.9777 47.8572 24.1497 48.0246C24.3217 48.1919 24.423 48.4188 24.4327 48.6586V49.0999H23.0899C22.6929 49.0975 22.3087 49.2401 22.0095 49.501C21.7102 49.7619 21.5166 50.1231 21.465 50.5167C21.4134 50.9103 21.5073 51.3092 21.7291 51.6385C21.9509 51.9677 22.2854 52.2046 22.6696 52.3046H22.6948L22.7852 52.3256L22.8986 52.3424H22.9217C23.0034 52.351 23.0855 52.3552 23.1676 52.355C23.3606 52.3586 23.5529 52.331 23.7371 52.273C23.98 52.1967 24.2012 52.0634 24.3822 51.8843L24.4242 51.8444V52.231H25.3699V51.6006L25.3846 48.7595ZM23.2706 49.8102H24.4327V50.4763C24.4328 50.722 24.3469 50.9599 24.1899 51.1488C24.0329 51.3376 23.8147 51.4655 23.5732 51.5102C23.5043 51.5265 23.4338 51.535 23.363 51.5355C23.1942 51.534 23.0288 51.4876 22.8839 51.401C22.8415 51.378 22.8007 51.352 22.762 51.3232C22.7086 51.2803 22.66 51.2317 22.617 51.1782L22.6065 51.1656C22.5099 51.0409 22.4503 50.8916 22.4346 50.7346C22.4188 50.5777 22.4476 50.4195 22.5175 50.2781C22.5874 50.1367 22.6957 50.0179 22.83 49.9351C22.9643 49.8524 23.1192 49.8091 23.2769 49.8102H23.2706Z" fill="#FF6B01"/>
<path d="M34.2137 48.7637C34.211 48.7018 34.2047 48.64 34.1947 48.5788V48.5536C34.1471 48.27 34.0365 48.0008 33.8711 47.7655C33.7107 47.5375 33.501 47.3485 33.2577 47.2125C33.0144 47.0765 32.7435 46.9969 32.4653 46.9796H32.356C31.9156 46.9785 31.4886 47.1312 31.1488 47.4112C30.8089 47.6913 30.5774 48.0812 30.4942 48.5136H31.4209C31.4636 48.2885 31.5879 48.087 31.7699 47.9477C31.9519 47.8085 32.1789 47.7413 32.4074 47.759C32.6359 47.7767 32.8498 47.878 33.0082 48.0437C33.1666 48.2093 33.2584 48.4275 33.2659 48.6565V49.0978H31.921C31.525 49.098 31.1425 49.2424 30.8453 49.5042C30.548 49.7659 30.3564 50.127 30.3061 50.5199C30.2559 50.9127 30.3505 51.3104 30.5724 51.6385C30.7942 51.9667 31.128 52.2027 31.5112 52.3025H31.5365L31.6268 52.3235L31.7403 52.3403H31.7634C31.845 52.3496 31.9271 52.3546 32.0093 52.355C32.2023 52.3586 32.3946 52.331 32.5788 52.2731C32.8209 52.195 33.0418 52.062 33.2239 51.8843L33.2659 51.8444V52.231H34.2116V51.6006L34.2137 48.7637ZM32.0996 49.8144H33.2596V50.489C33.2598 50.7346 33.1739 50.9725 33.0169 51.1614C32.8599 51.3503 32.6417 51.4782 32.4001 51.5229C32.3313 51.5392 32.2608 51.5476 32.19 51.5481C32.0212 51.5466 31.8558 51.5002 31.7109 51.4136C31.668 51.3914 31.6272 51.3654 31.589 51.3358C31.5349 51.2929 31.4856 51.2443 31.4419 51.1908V51.1782C31.3288 51.0328 31.2674 50.8539 31.2675 50.6697C31.2658 50.4471 31.3525 50.233 31.5085 50.0742C31.6645 49.9154 31.8771 49.825 32.0996 49.8228V49.8144Z" fill="#FF6B01"/>
<path d="M40.0215 24.608H24.418V28.125H40.0215V24.608Z" fill="#FF6B01"/>
<path d="M47.8396 11.84H37.5156L40.0065 15.3649L47.5341 17.7148C48.1986 17.9247 48.778 18.3425 49.187 18.9066C49.596 19.4707 49.8129 20.1513 49.8057 20.8481V32.0807C49.8104 32.7769 49.5926 33.4563 49.1839 34.02C48.7753 34.5836 48.1973 35.002 47.5341 35.214L40.0065 37.5169L37.5156 41.0418H47.8396C48.8667 41.0428 49.8839 40.8407 50.8325 40.4469C51.7812 40.0531 52.6425 39.4756 53.367 38.7475C54.0914 38.0194 54.6647 37.1551 55.0537 36.2046C55.4427 35.254 55.6398 34.2358 55.6336 33.2087V19.6731C55.6336 17.6024 54.8137 15.616 53.3532 14.1481C51.8926 12.6802 49.9103 11.8504 47.8396 11.84Z" fill="#FF6B01"/>
<path d="M16.6319 11.84H26.9246L24.465 15.3649L16.9374 17.7148C16.2722 17.9244 15.6917 18.3419 15.2814 18.9059C14.8711 19.4699 14.6526 20.1506 14.658 20.8481V32.0807C14.655 32.7776 14.8745 33.4572 15.2845 34.0207C15.6944 34.5842 16.2735 35.0022 16.9374 35.214L24.465 37.5169L26.9559 41.0418H16.6319C14.5545 41.0418 12.5621 40.2165 11.0931 38.7475C9.6241 37.2785 8.79883 35.2862 8.79883 33.2087V19.6731C8.79883 17.5957 9.6241 15.6033 11.0931 14.1343C12.5621 12.6653 14.5545 11.84 16.6319 11.84Z" fill="#FF6B01"/>
</svg>
