<svg width="20" height="20" viewBox="0 0 20 20" fill="none" xmlns="http://www.w3.org/2000/svg">
<g clip-path="url(#clip0_11766_33501)">
<path d="M10 20C15.5228 20 20 15.5228 20 10C20 4.47715 15.5228 0 10 0C4.47715 0 0 4.47715 0 10C0 15.5228 4.47715 20 10 20Z" fill="#003425"/>
<path d="M15.0711 12.0409C15.0711 11.6508 14.7548 11.3345 14.3646 11.3345C13.9745 11.3345 13.6582 11.6508 13.6582 12.0409V15.683C13.6582 16.0731 13.9745 16.3894 14.3646 16.3894C14.7548 16.3894 15.0711 16.0731 15.0711 15.683V12.0409Z" fill="white"/>
<path fill-rule="evenodd" clip-rule="evenodd" d="M14.0669 4.44518C13.7697 4.19242 13.3238 4.22842 13.0711 4.52562L9.12334 9.16742C9.02148 9.28718 8.96651 9.43112 8.95664 9.57678C8.95111 9.61242 8.94824 9.64892 8.94824 9.68608V15.6201C8.94824 16.0103 9.26451 16.3266 9.65468 16.3266C10.0448 16.3266 10.3611 16.0103 10.3611 15.6201V9.89285L14.1473 5.44098C14.4001 5.14378 14.3641 4.69795 14.0669 4.44518Z" fill="white"/>
<path d="M5.33934 4.12569C5.09199 3.82397 4.64688 3.77989 4.34515 4.02723C4.04343 4.27458 3.99934 4.7197 4.24669 5.02142L7.04377 8.43342C7.29112 8.73515 7.73623 8.77923 8.03796 8.53188C8.33969 8.28453 8.38377 7.83942 8.13642 7.53769L5.33934 4.12569Z" fill="white"/>
<path d="M15.3371 10.1726C15.8139 10.1726 16.2005 9.78608 16.2005 9.30922C16.2005 8.83237 15.8139 8.4458 15.3371 8.4458C14.8602 8.4458 14.4736 8.83237 14.4736 9.30922C14.4736 9.78608 14.8602 10.1726 15.3371 10.1726Z" fill="#00FF25"/>
</g>
<defs>
<clipPath id="clip0_11766_33501">
<rect width="20" height="20" fill="white"/>
</clipPath>
</defs>
</svg>
