<svg width="70" height="69" viewBox="0 0 70 69" fill="none" xmlns="http://www.w3.org/2000/svg">
<g filter="url(#filter0_d_11766_33518)">
<rect x="3" y="2" width="64" height="64" rx="4.67474" fill="white"/>
<rect x="3.17718" y="2.17718" width="63.6456" height="63.6456" rx="4.49755" stroke="#F2F4F8" stroke-width="0.354369"/>
</g>
<path d="M55.4085 31.116C55.9343 29.554 56.1162 27.8994 55.9419 26.2625C55.7677 24.6257 55.2413 23.0443 54.398 21.6242C53.1478 19.4776 51.2388 17.7781 48.9463 16.7707C46.6537 15.7633 44.0961 15.5 41.6421 16.0189C40.248 14.4891 38.4703 13.3482 36.4876 12.7106C34.505 12.0731 32.3871 11.9613 30.3468 12.3866C28.3065 12.8119 26.4156 13.7593 24.864 15.1336C23.3123 16.5079 22.1546 18.2607 21.507 20.2161C19.8722 20.5468 18.3277 21.2178 16.9768 22.1845C15.6259 23.1511 14.4998 24.391 13.6736 25.8214C12.4098 27.9644 11.8696 30.4483 12.1313 32.914C12.3929 35.3798 13.4427 37.6996 15.1289 39.5381C14.6011 41.0993 14.4175 42.7537 14.5901 44.3906C14.7628 46.0275 15.2879 47.6091 16.1302 49.0297C17.382 51.1771 19.2927 52.877 21.5868 53.8844C23.8809 54.8918 26.4401 55.1547 28.8955 54.6352C30.0031 55.8656 31.3641 56.8487 32.8875 57.5189C34.411 58.1891 36.0619 58.5311 37.73 58.5218C40.2453 58.5241 42.6962 57.7379 44.729 56.2768C46.7619 54.8156 48.2714 52.7551 49.0398 50.3926C50.6745 50.0613 52.2187 49.39 53.5695 48.4234C54.9203 47.4568 56.0466 46.2171 56.8732 44.7871C58.1221 42.6473 58.6529 40.1727 58.3899 37.7172C58.1268 35.2618 57.0832 32.9511 55.4085 31.116ZM37.73 55.4857C35.67 55.4889 33.6747 54.7767 32.0937 53.474L32.3718 53.3186L41.7348 47.9874C41.9678 47.8525 42.1613 47.6603 42.2962 47.4294C42.4311 47.1985 42.5028 46.937 42.5043 46.6705V33.649L46.4625 35.9078C46.482 35.9176 46.499 35.9318 46.5119 35.9492C46.5249 35.9667 46.5334 35.9869 46.5369 36.0083V46.7986C46.532 49.1011 45.6025 51.3079 43.9519 52.936C42.3014 54.564 40.0642 55.4808 37.73 55.4857ZM18.8 47.5119C17.7669 45.7522 17.396 43.6896 17.7525 41.6868L18.0307 41.8515L27.4029 47.1827C27.6348 47.3169 27.8988 47.3877 28.1677 47.3877C28.4366 47.3877 28.7006 47.3169 28.9325 47.1827L40.3814 40.6719V45.1801C40.3803 45.2034 40.3739 45.2263 40.3626 45.2468C40.3514 45.2674 40.3356 45.2852 40.3163 45.2989L30.8328 50.6941C28.8089 51.8442 26.4051 52.155 24.149 51.5584C21.893 50.9618 19.9692 49.5064 18.8 47.5119ZM16.3342 27.3943C17.3744 25.6234 19.0164 24.2726 20.9693 23.5812V34.5544C20.9658 34.8195 21.0345 35.0807 21.1682 35.3107C21.3019 35.5407 21.4957 35.7311 21.7294 35.862L33.1227 42.3453L29.1643 44.6039C29.1429 44.6151 29.119 44.621 29.0948 44.621C29.0705 44.621 29.0466 44.6151 29.0252 44.6039L19.5603 39.218C17.5402 38.0629 16.0664 36.1653 15.4618 33.9407C14.8571 31.716 15.1708 29.3457 16.3342 27.3487V27.3943ZM48.8544 34.847L37.4241 28.2997L41.3733 26.0498C41.3947 26.0386 41.4186 26.0327 41.4429 26.0327C41.4671 26.0327 41.491 26.0386 41.5124 26.0498L50.9773 31.445C52.4245 32.2687 53.6043 33.4815 54.3789 34.9417C55.1535 36.402 55.4911 38.0495 55.3521 39.6919C55.2131 41.3343 54.6033 42.9038 53.594 44.2172C52.5846 45.5306 51.2173 46.5336 49.6517 47.1093V36.136C49.6435 35.8714 49.5657 35.6134 49.4259 35.3874C49.2861 35.1613 49.0893 34.9753 48.8544 34.847ZM52.7944 29.0038L52.5161 28.8391L43.1625 23.4623C42.9292 23.3272 42.6635 23.256 42.393 23.256C42.1225 23.256 41.8568 23.3272 41.6235 23.4623L30.1842 29.9729V25.4649C30.1818 25.442 30.1857 25.4189 30.1955 25.398C30.2053 25.377 30.2206 25.3591 30.2399 25.3461L39.7048 19.96C41.1554 19.1356 42.814 18.7358 44.4866 18.8071C46.1591 18.8785 47.7765 19.4181 49.1496 20.3629C50.5226 21.3077 51.5946 22.6186 52.2401 24.1423C52.8856 25.666 53.0779 27.3395 52.7946 28.9671L52.7944 29.0038ZM28.0239 36.9956L24.0657 34.7461C24.0459 34.7344 24.029 34.7185 24.0161 34.6995C24.0033 34.6806 23.9948 34.6591 23.9913 34.6365V23.8738C23.9934 22.2227 24.4721 20.6063 25.3712 19.2137C26.2704 17.821 27.5529 16.7097 29.0688 16.0095C30.5847 15.3093 32.2713 15.0493 33.9315 15.2598C35.5917 15.4703 37.1568 16.1427 38.4439 17.1983L38.1656 17.3539L28.8028 22.6847C28.5698 22.8195 28.3763 23.0118 28.2414 23.2427C28.1065 23.4736 28.0348 23.7351 28.0333 24.0016L28.0239 36.9956ZM30.1746 32.4236L35.2732 29.5247L40.3814 32.4236V38.221L35.2918 41.1197L30.184 38.221L30.1746 32.4236Z" fill="black"/>
<defs>
<filter id="filter0_d_11766_33518" x="0.90502" y="0.428765" width="68.19" height="68.19" filterUnits="userSpaceOnUse" color-interpolation-filters="sRGB">
<feFlood flood-opacity="0" result="BackgroundImageFix"/>
<feColorMatrix in="SourceAlpha" type="matrix" values="0 0 0 0 0 0 0 0 0 0 0 0 0 0 0 0 0 0 127 0" result="hardAlpha"/>
<feOffset dy="0.523745"/>
<feGaussianBlur stdDeviation="1.04749"/>
<feComposite in2="hardAlpha" operator="out"/>
<feColorMatrix type="matrix" values="0 0 0 0 0.255208 0 0 0 0 0.284375 0 0 0 0 0.328125 0 0 0 0.1 0"/>
<feBlend mode="normal" in2="BackgroundImageFix" result="effect1_dropShadow_11766_33518"/>
<feBlend mode="normal" in="SourceGraphic" in2="effect1_dropShadow_11766_33518" result="shape"/>
</filter>
</defs>
</svg>
